# xmcd CD database file
#
# Track frame offsets:
#	150
#	17328
#	33384
#	49823
#	67408
#	81716
#	98403
#	115588
#	132383
#	151811
#	164478
#
# Disc length: 2469 seconds
#
# Revision: 3
# Processed by: cddbd v1.5.1PL0 Copyright (c) Steve Scherf et al.
# Submitted via: CDex 1.51
#
DISCID=8c09a30b
DTITLE=Ty Herndon - Big Hopes
DYEAR=1998
DGENRE=Country
TTITLE0=Big Hopes
TTITLE1=It Must Be Love
TTITLE2=A Man Holdin' On (To A Woman Lettin' Go)
TTITLE3=Big Time Dreamer
TTITLE4=Thinkin' Again With My Heart
TTITLE5=Somewhere My Lover
TTITLE6=Hands Of A Working Man
TTITLE7=How Much Can One Man Love You
TTITLE8=The Only Way I Know
TTITLE9=No Brakes
TTITLE10=Tears In God's Eyes
EXTD=Shellimark Entertainment -Mobile DJ's\nMarc Taylor\n\nShellimark@hotmail.com YEAR: 1998
EXTT0=
EXTT1=
EXTT2=
EXTT3=
EXTT4=
EXTT5=
EXTT6=
EXTT7=
EXTT8=
EXTT9=
EXTT10=
PLAYORDER=
